PathFileType	4	(X/Y/Z)	OpenSim_Sub06_CSBaseline_Gyro.trc
DataRate	CameraRate	NumFrames	NumMarkers	Units	OrigDataRate	OrigDataStartFrame	OrigNumFrames
100	100	16	8	m	100	7431	8492
Frame#	Time	torso_imu_offset_imu	pelvis_imu_offset_imu	tibia_r_imu_offset_imu	femur_r_imu_offset_imu	tibia_l_imu_offset_imu	femur_l_imu_offset_imu	toes_r_imu_offset_imu	toes_l_imu_offset_imu
				X1	Y1	Z1	X2	Y2	Z2	X3	Y3	Z3	X4	Y4	Z4	X5	Y5	Z5	X6	Y6	Z6	X7	Y7	Z7	X8		Y8	Z8	

7431	74.30000000	1.02688625	-0.19426769	0.09926975	0.60797556	0.13562890	-0.31734681	1.16046801	-0.00855066	-0.42710546	-0.79646767	-0.37808790	-0.83497953	-2.06701830	-0.20770888	-2.79142967	0.18267471	-0.12820941	-1.51000139	0.00379974	-0.28954793	-0.07022104	0.93511039	3.02157863	-0.97783220
7432	74.31000000	0.96582111	-0.16386473	0.06249277	0.49721598	0.14220733	-0.33595469	0.72982107	-0.00723399	-0.44124312	-0.73803667	-0.44959972	-0.83389302	-2.08364402	-0.22462038	-3.12611246	-0.37410289	-0.23959448	-1.37053852	0.00388503	-0.25148450	-0.07086187	1.34925303	3.14050112	-1.07149350
7433	74.32000000	0.89707799	-0.12005940	0.06084404	0.39560066	0.16676169	-0.35323381	0.13951244	-0.03946061	-0.50458706	-0.61688299	-0.47224163	-0.81550043	-1.67065784	-0.09288069	-3.30871060	-0.91788180	-0.31733766	-1.20369551	0.03606291	-0.23578416	-0.10669165	1.54585601	3.13163396	-1.26022794
7434	74.33000000	0.84415098	-0.10267439	0.07998961	0.31794241	0.18891262	-0.36317702	-0.36038169	-0.06731888	-0.56488799	-0.46714617	-0.41948002	-0.82100720	-1.34887816	0.04560470	-3.45059166	-1.26944590	-0.35122524	-1.01816783	0.01440440	-0.19085654	-0.11494723	1.42333991	3.00732194	-1.51200275
7435	74.34000000	0.78144777	-0.09186773	0.10333959	0.26312016	0.18547364	-0.35920222	-0.72415699	-0.09275352	-0.59331711	-0.25727224	-0.31376264	-0.82350712	-1.02171832	0.02141255	-3.55921353	-1.49803265	-0.34562861	-0.80234095	0.02291230	-0.14481805	-0.14075187	1.37007733	2.88154460	-1.70480302
7436	74.35000000	0.72591278	-0.09808278	0.11632770	0.22799869	0.17887211	-0.31603622	-0.90115055	-0.11774008	-0.60297169	-0.00111070	-0.19972333	-0.80422821	-0.46806526	-0.20472414	-3.69937114	-1.56679899	-0.31751735	-0.57090230	0.02852411	-0.10182198	-0.16386388	1.17702741	2.72070058	-1.76510344
7437	74.36000000	0.67980437	-0.11251575	0.11929216	0.20431921	0.19140519	-0.25344797	-0.86984385	-0.11380083	-0.59906715	0.23534876	-0.12302489	-0.77737146	0.05462664	-0.36369779	-3.87740477	-1.43782867	-0.26056146	-0.38494797	0.03230200	-0.05669742	-0.18347641	1.11737546	2.67716478	-1.73585726
7438	74.37000000	0.63841341	-0.13051479	0.11628543	0.17181237	0.22999642	-0.16698252	-0.66723709	-0.07734662	-0.57025062	0.36989770	-0.11634333	-0.81040910	0.42219715	-0.19921969	-4.01338066	-1.30478605	-0.26468969	-0.16677551	0.06297359	-0.01114830	-0.22000842	1.12953857	2.89979032	-1.69560086
7439	74.38000000	0.59340021	-0.14093732	0.10821308	0.14237497	0.26965517	-0.13044619	-0.33877842	-0.05350944	-0.54587583	0.39808417	-0.16206005	-0.85011642	0.70105939	0.13898743	-4.07717202	-0.86615590	-0.21850732	-0.01123196	0.05115229	0.00698661	-0.22465074	1.17551545	3.24431923	-1.65086008
7440	74.39000000	0.54763836	-0.15098899	0.09779283	0.10704738	0.27940514	-0.08989408	0.06307336	-0.04090067	-0.52845235	0.36227978	-0.23186798	-0.86663513	0.82433915	0.34264651	-4.07571739	-0.78028280	-0.24266640	0.13556777	0.04435775	0.00668064	-0.22904307	1.16389039	3.39891575	-1.56840608
7441	74.40000000	0.49772237	-0.15570068	0.09379661	0.09451998	0.25144891	-0.04402016	0.38310575	-0.01351371	-0.52201087	0.29093210	-0.31608945	-0.90445688	0.78120439	0.28982951	-4.20883825	-0.58329488	-0.29372828	0.20519984	0.04324430	-0.00742364	-0.22541573	1.08133297	3.37737425	-1.49236130
7442	74.41000000	0.45471853	-0.14464460	0.08259854	0.05776290	0.18892408	-0.01965564	0.54414607	0.02209267	-0.52423757	0.23656778	-0.36378221	-0.93157024	0.61782852	0.08359859	-4.37101997	-0.32010218	-0.30397437	0.21912375	0.06001764	-0.04992420	-0.21806473	0.93915560	3.32075857	-1.56796272
7443	74.42000000	0.39387555	-0.12938073	0.08854012	0.01659006	0.14343568	0.01010988	0.54183174	0.04271097	-0.53212306	0.21025985	-0.38148305	-0.97951295	0.29086509	-0.09042883	-4.41346847	-0.12930131	-0.29746229	0.21023717	0.03338887	-0.07492407	-0.21067439	0.71406871	3.20040329	-1.83344534
7444	74.43000000	0.32918166	-0.11851799	0.09933999	-0.01627750	0.13130990	0.03149194	0.43076653	0.04058707	-0.55711416	0.20131169	-0.32323488	-0.94856202	-0.22367129	-0.12670334	-4.33006458	0.11436450	-0.20809527	0.15131869	0.03381463	-0.11367567	-0.20741338	0.47645014	2.98094610	-2.19482124
7445	74.44000000	0.26670500	-0.11724066	0.10557062	-0.04573062	0.11880871	0.05575310	0.22255158	0.05279794	-0.59853638	0.21735031	-0.26392622	-0.92830007	-0.78558501	-0.10453671	-4.16678829	0.36903108	-0.08430543	0.12280648	0.04233995	-0.14645425	-0.21917406	0.19957763	2.73430801	-2.53411819
7446	74.45000000	0.22008772	-0.10147232	0.10141803	-0.08872178	0.09451183	0.06657086	-0.01942878	0.06458300	-0.64628939	0.24541767	-0.24352297	-0.90043277	-1.19300489	-0.03747911	-3.98210591	0.60383847	-0.05367040	0.17973650	0.03062455	-0.16364887	-0.22425332	-0.05270248	2.48426645	-2.75503293
